<svg id="feather_user" data-name="feather / user" xmlns="http://www.w3.org/2000/svg"
    xmlns:xlink="http://www.w3.org/1999/xlink" width="16" height="16" viewBox="0 0 16 16">
    <defs>
        <clipPath id="clip-path">
            <path id="Combined_Shape" data-name="Combined Shape"
                d="M13.411,16a.8.8,0,0,1-.789-.8V13.6a2.386,2.386,0,0,0-2.367-2.4H3.945a2.386,2.386,0,0,0-2.367,2.4v1.6a.8.8,0,0,1-.789.8A.8.8,0,0,1,0,15.2V13.6a3.977,3.977,0,0,1,3.945-4h6.31a3.977,3.977,0,0,1,3.945,4v1.6A.8.8,0,0,1,13.411,16ZM7.1,8A3.977,3.977,0,0,1,3.155,4a3.945,3.945,0,1,1,7.89,0A3.977,3.977,0,0,1,7.1,8Zm0-6.4A2.4,2.4,0,1,0,9.466,4,2.386,2.386,0,0,0,7.1,1.6Z"
                fill="#18191f" />
        </clipPath>
    </defs>
    <g id="Group_14" data-name="Group 14" transform="translate(0 0)">
        <path id="Combined_Shape-2" data-name="Combined Shape"
            d="M13.411,16a.8.8,0,0,1-.789-.8V13.6a2.386,2.386,0,0,0-2.367-2.4H3.945a2.386,2.386,0,0,0-2.367,2.4v1.6a.8.8,0,0,1-.789.8A.8.8,0,0,1,0,15.2V13.6a3.977,3.977,0,0,1,3.945-4h6.31a3.977,3.977,0,0,1,3.945,4v1.6A.8.8,0,0,1,13.411,16ZM7.1,8A3.977,3.977,0,0,1,3.155,4a3.945,3.945,0,1,1,7.89,0A3.977,3.977,0,0,1,7.1,8Zm0-6.4A2.4,2.4,0,1,0,9.466,4,2.386,2.386,0,0,0,7.1,1.6Z"
            transform="translate(0 0)" fill="#18191f" />
        <g id="Mask_Group_14" data-name="Mask Group 14" transform="translate(0 0)" clip-path="url(#clip-path)">
            <g id="COLOR_black" data-name="COLOR/ black" transform="translate(-2.367 -1.6)">
                <rect id="Rectangle" width="18.933" height="19.2" fill="#18191f" />
            </g>
        </g>
    </g>
</svg>