<svg id="browse" xmlns="http://www.w3.org/2000/svg" width="16" height="22" viewBox="0 0 16 22">
    <path id="Path_167" data-name="Path 167"
        d="M14.364,13.121a3,3,0,0,1,.586,3.415l1.535,1.535a1,1,0,1,1-1.414,1.414L13.536,17.95a3,3,0,1,1,.828-4.829ZM12.95,15.95a1,1,0,1,0-1.414,0A1,1,0,0,0,12.95,15.95Z"
        transform="translate(-4 -1)" fill-rule="evenodd" />
    <path id="Path_168" data-name="Path 168" d="M8,5h8V7H8Z" transform="translate(-4 -1)" />
    <path id="Path_169" data-name="Path 169" d="M16,9H8v2h8Z" transform="translate(-4 -1)" />
    <path id="Path_170" data-name="Path 170"
        d="M4,4A3,3,0,0,1,7,1H17a3,3,0,0,1,3,3V20a3,3,0,0,1-3,3H7a3,3,0,0,1-3-3ZM7,3H17a1,1,0,0,1,1,1V20a1,1,0,0,1-1,1H7a1,1,0,0,1-1-1V4A1,1,0,0,1,7,3Z"
        transform="translate(-4 -1)" fill-rule="evenodd" />
</svg>